<svg xmlns="http://www.w3.org/2000/svg" viewBox="0 0 54 21"><path d="M6.852 20.26c3.588 0 6.032-2.002 6.032-5.33 0-3.042-1.898-4.498-5.174-5.382l-1.144-.312c-2.496-.65-4.342-1.638-4.342-4.108 0-1.95 1.534-3.614 4.498-3.614 3.328 0 4.29 2.054 4.498 3.588h1.118V4.088C11.948 1.878 10.128.24 6.8.24 2.848.24.742 2.502.742 5.18c0 2.678 1.482 4.446 5.226 5.408l.91.26c3.718.988 4.524 2.34 4.524 4.082 0 2.652-1.95 4.056-4.524 4.056-2.912 0-4.602-1.378-5.382-3.718H.404v1.014c.754 2.054 2.6 3.978 6.448 3.978zm16.32.026c2.626 0 4.68-1.092 6.084-2.782L31.882 20H33v-1.014l-2.834-2.678c.936-1.664 1.482-3.77 1.612-5.772h-1.352c-.13 1.586-.572 3.432-1.3 4.81-1.638-1.352-5.226-5.07-5.356-5.2 3.146-1.534 4.758-3.016 4.758-5.512 0-2.626-1.768-4.394-4.654-4.394-3.042 0-4.888 2.054-4.888 4.576 0 1.638.416 2.782 2.21 4.836-2.08.988-4.108 2.47-4.108 5.356 0 2.99 2.236 5.278 6.084 5.278zm-.338-11.024c-1.69-1.794-2.366-2.86-2.366-4.524 0-1.82 1.326-3.224 3.38-3.224S27.02 2.788 27.02 4.66c0 1.846-1.326 3.328-4.186 4.602zm.442 9.724c-2.964 0-4.68-1.742-4.68-4.056 0-2.444 1.82-3.588 3.458-4.342.182.182 4.316 4.238 6.214 5.954-1.092 1.404-2.782 2.444-4.992 2.444zm22.872 1.274c5.694 0 7.488-3.302 7.488-3.302v-6.734h-7.254v1.274h5.746v4.914c-.676.858-2.444 2.574-5.954 2.574-4.966 0-8.138-3.77-8.138-8.814 0-4.758 2.782-8.658 8.112-8.658 4.94 0 6.214 3.328 6.214 3.328h1.118V3.828l-.008-.017C53.344 3.547 51.638.24 46.122.24c-6.058 0-9.62 4.212-9.62 9.932 0 5.668 3.562 10.088 9.646 10.088z" fill="#706A67" fill-rule="nonzero"/></svg>